<mxfile host="65bd71144e">
    <diagram id="Tcz2KPsLZWEXUsiJmVOe" name="Page-1">
        <mxGraphModel dx="2337" dy="826" grid="1" gridSize="10" guides="1" tooltips="1" connect="1" arrows="1" fold="1" page="1" pageScale="1" pageWidth="827" pageHeight="1169" math="0" shadow="0">
            <root>
                <mxCell id="0"/>
                <mxCell id="1" parent="0"/>
                <mxCell id="10" style="edgeStyle=none;html=1;entryX=0.501;entryY=0.004;entryDx=0;entryDy=0;entryPerimeter=0;" edge="1" parent="1" target="9">
                    <mxGeometry relative="1" as="geometry">
                        <mxPoint x="279.08530906011856" y="248" as="sourcePoint"/>
                    </mxGeometry>
                </mxCell>
                <mxCell id="5" style="edgeStyle=none;html=1;entryX=0;entryY=0.5;entryDx=0;entryDy=0;entryPerimeter=0;" parent="1" source="3" edge="1">
                    <mxGeometry relative="1" as="geometry">
                        <mxPoint x="240" y="209" as="targetPoint"/>
                    </mxGeometry>
                </mxCell>
                <mxCell id="3" value="&lt;h2 style=&quot;text-align: left&quot;&gt;&lt;span&gt;Browser Fetch Request&lt;/span&gt;&lt;/h2&gt;&lt;div style=&quot;text-align: left&quot;&gt;&lt;span&gt;&lt;br&gt;&lt;/span&gt;&lt;/div&gt;&lt;div style=&quot;text-align: left&quot;&gt;&lt;span&gt;{&lt;/span&gt;&lt;/div&gt;&lt;div style=&quot;text-align: left&quot;&gt;&lt;span style=&quot;white-space: pre&quot;&gt;&#9;&lt;/span&gt;method: POST,&lt;br&gt;&lt;/div&gt;&lt;div style=&quot;text-align: left&quot;&gt;&lt;span style=&quot;white-space: pre&quot;&gt;&#9;&lt;/span&gt;body: {&lt;/div&gt;&lt;div style=&quot;text-align: left&quot;&gt;&lt;span style=&quot;white-space: pre&quot;&gt;&#9;&lt;span style=&quot;white-space: pre&quot;&gt;&#9;&lt;/span&gt;n&lt;/span&gt;ame: &quot;John Doe&quot;,&lt;/div&gt;&lt;div style=&quot;text-align: left&quot;&gt;&lt;span style=&quot;white-space: pre&quot;&gt;&#9;&lt;/span&gt;&lt;span style=&quot;white-space: pre&quot;&gt;&#9;&lt;/span&gt;email: &quot;john.doe@email.com&quot;,&lt;br&gt;&lt;/div&gt;&lt;div style=&quot;text-align: left&quot;&gt;&lt;span style=&quot;white-space: pre&quot;&gt;&#9;&lt;/span&gt;&lt;span style=&quot;white-space: pre&quot;&gt;&#9;&lt;/span&gt;message: &quot;message text&quot;&lt;br&gt;&lt;/div&gt;&lt;div style=&quot;text-align: left&quot;&gt;&lt;span style=&quot;white-space: pre&quot;&gt;&#9;&lt;/span&gt;}&lt;br&gt;&lt;/div&gt;&lt;div style=&quot;text-align: left&quot;&gt;&lt;span&gt;}&lt;/span&gt;&lt;/div&gt;" style="text;html=1;align=center;verticalAlign=middle;resizable=0;points=[];autosize=1;strokeColor=none;fillColor=none;" parent="1" vertex="1">
                    <mxGeometry x="-140" y="119" width="230" height="180" as="geometry"/>
                </mxCell>
                <mxCell id="8" style="edgeStyle=none;html=1;" edge="1" parent="1" source="7" target="3">
                    <mxGeometry relative="1" as="geometry"/>
                </mxCell>
                <mxCell id="7" value="" style="shape=image;imageAspect=0;aspect=fixed;verticalLabelPosition=bottom;verticalAlign=top;image=data:image/png,iVBORw0KGgoAAAANSUhEUgAAARcAAAEICAYAAAB1U7CaAAABR2lDQ1BJQ0MgUHJvZmlsZQAAKJFjYGASSSwoyGFhYGDIzSspCnJ3UoiIjFJgf87AzMDEIMYgycCSmFxc4BgQ4ANUwgCjUcG3awyMIPqyLsisRPNU1msleg+fnni5MsOl5BemehTAlZJanAyk/wBxWnJBUQkDA2MKkK1cXlIAYncA2SJFQEcB2XNA7HQIewOInQRhHwGrCQlyBrJvANkCyRmJQDMYXwDZOklI4ulIbKi9IMDj4+qn4GNkXqhrbEDAuaSDktSKEhDtnF9QWZSZnlGi4AgMpVQFz7xkPR0FIwMjYwYGUJhDVH8OAoclo9g+hFj+EgYGi28MDMwTEWJJUxgYtrcxMEjcQoipzGNg4G9hYNh2qCCxKBHuAMZvLMVpxkYQNo89AwPr3f//P2swMLBPZGD4O/H//9+L////uxho/m0GhgOVANg0YVE+eC2SAAAAVmVYSWZNTQAqAAAACAABh2kABAAAAAEAAAAaAAAAAAADkoYABwAAABIAAABEoAIABAAAAAEAAAEXoAMABAAAAAEAAAEIAAAAAEFTQ0lJAAAAU2NyZWVuc2hvdCHeSYIAAAHWaVRYdFhNTDpjb20uYWRvYmUueG1wAAAAAAA8eDp4bXBtZXRhIHhtbG5zOng9ImFkb2JlOm5zOm1ldGEvIiB4OnhtcHRrPSJYTVAgQ29yZSA2LjAuMCI+CiAgIDxyZGY6UkRGIHhtbG5zOnJkZj0iaHR0cDovL3d3dy53My5vcmcvMTk5OS8wMi8yMi1yZGYtc3ludGF4LW5zIyI+CiAgICAgIDxyZGY6RGVzY3JpcHRpb24gcmRmOmFib3V0PSIiCiAgICAgICAgICAgIHhtbG5zOmV4aWY9Imh0dHA6Ly9ucy5hZG9iZS5jb20vZXhpZi8xLjAvIj4KICAgICAgICAgPGV4aWY6UGl4ZWxZRGltZW5zaW9uPjI2NDwvZXhpZjpQaXhlbFlEaW1lbnNpb24+CiAgICAgICAgIDxleGlmOlBpeGVsWERpbWVuc2lvbj4yNzk8L2V4aWY6UGl4ZWxYRGltZW5zaW9uPgogICAgICAgICA8ZXhpZjpVc2VyQ29tbWVudD5TY3JlZW5zaG90PC9leGlmOlVzZXJDb21tZW50PgogICAgICA8L3JkZjpEZXNjcmlwdGlvbj4KICAgPC9yZGY6UkRGPgo8L3g6eG1wbWV0YT4KyAoOuQAAJHJJREFUeAHtnQeUFUXahj9yjkqSDAoSBCVJkiQ5SBRwBWFFQAlLcn8QRRZchQUkI1FEgrKAi2QPAhJ3JSoCknOUnDP0X2+d023fOzP3zjDT905Pv985M91dVV3hqb7vVH1VdzqRoUxoJEACJBDHBBLHcX7MjgRIgAQ0AYoLHwQSIAFHCFBcHMHKTEmABCgufAZIgAQcIUBxcQQrMyUBEqC48BkgARJwhADFxRGszJQESIDiwmeABEjAEQIUF0ewMlMSIAGKC58BEiABRwhQXBzBykxJgAQoLnwGSIAEHCFAcXEEKzMlARKguPAZIAEScIQAxcURrMyUBEiA4sJngARIwBECFBdHsDJTEiABigufARIgAUcIUFwcwcpMSYAEKC58BkiABBwhQHFxBCszJQESoLjwGSABEnCEAMXFEazMlARIgOLCZ4AESMARAkmfJNebN2/KTz/9JLt375Zff/1Vrl27JoULF5aSJUvKSy+9JC+++KIcOHBABgwYIPPmzXuSIjxxz+bNm2XdunVRtjVTpkzSsWNHHX/o0CH5z3/+EyFt+/btJWvWrBHCGUAC4SYQY3H54Ycf9AN/6tQp/VC/+eab8tprr8nBgwdlzJgx8ttvv0muXLm04KRKlSps7bt8+bJs27ZNateuHfI6QDCee+45eeaZZwKWnSxZMjl58qSMHz8+Qrp3331XcubMaYUnTZpUbt++LRMnTpTz58/r8A4dOkiiRImsNDwhgXhFAK9zjY49fvzY6NSpE179qn/UX0vjxIkTPrfeu3fP6NKli08anwQhunj48KHRoEEDo1SpUiEq8c9iNm7cqNu/dOnSPwODnLVt29ZiBr5NmzaN8o4tW7botGPHjo0yDSNIID4QiLbP5auvvpIpU6ZYwjh37lzJnTu3dY2T5MmTy4QJE6RXr14+4aG+GDp0qCxbtizUxcq5c+ekWbNmMS43X758PvcUKlTI59p+UaJECX2ZN29eezDPSSDeEYiWuBw7dkwwBDcNc/wqVaqYlxGOgwYNCpsfYP78+fLRRx9FqJPTAdevXxc14rCmLDEpD1Meu2G6FJWlSJFCRyVOHK2uiyobhpOA4wR8n+ooivvnP//pE9O8eXNJkiSJT5j9Il26dNo38N5779mD9Tn8BmvWrJFffvlFrl69qp3AlSpVkoIFC1ppDx8+LHv37rWucfLyyy8LfDhr164VNfWQMmXKSN26dSVt2rRWujlz5kibNm2sa/gm1PREX9epU0fMDy2EYPHixXLkyBHtxyhdurSUK1dOAo0GUKeff/5Zfv/9d11mzZo1RU27NAf4d+B3Qrxp//3vf0UNTSV//vxSrFgxM9ixo5q2ypIlS7SDXU1PBaOfF154QVasWCH9+vUTfwFzrCLMmARMAtGZmxUtWtTHJzB69Ojo3GZcuHDBJ51aWTLUQ6/zqlatmtGnTx8r33Hjxhnw68CWL19uwKej6mj9jBo1ylCOYuvajFMfHqsMMyyy4x9//KHTLViwQOeB/Pv27at9M2Z65K8c0lZ+OHn06JExYsQIfY8STWPgwIFGgQIFrDz27dtnDB8+PEK9zDx79uzpk19kF2qk53O/GnlFlswKQ95KSKzr+/fvG0o8dR7gq0aZBupq1uHWrVtWWp6QQKgI4K9rQLtz5471kJoP6+zZswPeE1nk8ePHrXzwwTYfeLVcbYWPHDnSuhUfHrM886iWXY2///3vPuFq1GPdg5MaNWpY8XDoQrBM0VI+ESuuZcuW1n1qZcYKh3DY7YMPPrDivv32Wx2lfDpWGJyxsA0bNlhhqC8cuma5OkGAX7EVF+Xnsso+ffq0Lgl8wQZ1MVkHqAKjSCDOCQSduGO/ir899dRT/kFBr9VfcCtN48aNJXXq1Pq6evXqVnjv3r1FfTj0dY4cOaxwnGCKBafysGHDBPebhqVvu/lP17BUay7XYl+Oadh/g2kZrGrVqmawniqZS71qVCJDhgyx4sx0zz//vBV29+5dfW6WYUWok8jC7PFxdW7fK2PuhQFfNcKMqyKYDwnEmEBQcTH9FPac1VTBfhn0HB/ihQsXWunsvg3/lZLvv//eSmc/wQY90+z7P27cuGEGBz1WqFDBcjSXLVtWMmbMqO9JkyaNz72mwE2fPt0Khx/JFLyGDRuKGrHI66+/Lv/4xz+sNOE6sYt99+7dtf8HPi34peArMoU8XPVjud4kEFRcsBnM38y/+P7hUV3v37/fJ8r+YfZ/8Pfs2eOTNrKLJ10pQVlqb47s2LFD74zFX/y//e1vgo2AkZl9VGRfdsfoaObMmXr3sfJHRXarY2Fq7Bohb//lbzh24WxW+5IEu3xpJBAOAkHFBasM+CtvN2xFj4lhNcVu9g8I9sbY7cyZM/ZLR863b98uxYsXF+VUFrRF+V8iLQe7jk3DTlqnzH/69ODBgyiLwmobDCMp01599VVRDm/z0jpOnTpVj16Uz8UK4wkJhIpAUHFBRfz3tGA5OCaGrwPYzS4ups/CjMd3lJwyTKGwfI3v62AZulu3bqJWpgTL1JGZfXkc9zolMNg3ZDd8VysqM/1B9ukkxAk+LbV7V8qXL+9zK9r5zTff+ITxggRCQSBa4vLhhx/q7wuZFYK4rF+/3ryM9Ig5P3wcR48e1d+zsSfCFx9Ns58jDHsznDK13C12YVQrTwGLwujGbpgKOWF2EUP+GFlFZdjjA7P7nTDyWrVqlR5h/u9//5Mff/xR1KqXlYX/tNSK4AkJOEggWuKCeTt2vtoNfoqonKkrV67Uc/4MGTJI9uzZJWXKlPob0ub99ofdPsXCB6JFixY6mfp+kJlcH9WyrnXt71C2j4SsROoE0xq1B0RmzJihN5LZN7kh3aVLl3Ry/3AdqH517tzZPNVH7Py1p1XL6/qLkZh2+E9tEIcpDAQWX/IMZJie2UcvW7dujfTb0vAXvf/++wJRtG+Kw9cO7F/NwAa/r7/+2ioSG/loJBByAuqDGW3DPg/75iw1BDfUQ22o6YKh/Cp6r0fr1q313gq1kuKzvwJ7Leyb8XAPzP6lPfUX16qLWgLW+Sgg+oiNYdg3gg1jKNcMx1E5aK37sGnNHoc9NbjeuXOnoaZDPnFoi7khzn5PvXr1jFmzZuk8/fegIF2jRo2szXfYQAfDJj17HjhH2fb9NDphFL/Uv1/wYYu6KUE3lA/KUAJsgD02yCFciaJPLq+88oouW+3ENcx9Lqg/6oD0Z8+e9UnPCxIIBYGgm+j8K4EHWy13RvggmR8sCAg22UW2gUyNdPTuUXtanOMDbhcI7NY109iP6msI+sNqDzPP8QGEqX05EXb3qi9Z6jikMXcIm/dhUx4+wHaRwYdVjTb0PfilpkMR6gPh8N9MiA+3mS+OEKmLFy9a+QQ7USMtQznPffKw56e+dhGpUKC+6guNljiZgoqjmgYGK5bxJOAIgUTIVT3AMTZ8fwXOQmyyw7Af0x9Ma7AfJdhSMb7bgw1tcFzCr2Ff5o1xRSK5AXXDkjacxfDhqL/ePql27dol6kMvWEbOli2bjsO0C/4KrF7hH17Zpx1IgBUcbKqDDwnOVDiezS8R2jPHahfS5cmTR39fyn+6ZE8b1Tn8UGqkpf83Dpa9n332Wf2DPCMzfI8J7cR3r9A21AFOdCWkOiyyexhGAk4TeGJxcbpizJ8ESMDdBKLl0HV3E1l7EiCBcBCguISDOsskAQ8QoLh4oJPZRBIIBwGKSzios0wS8AABiosHOplNJIFwEKC4hIM6yyQBDxCguHigk9lEEggHAYpLOKizTBLwAAGKiwc6mU0kgXAQoLiEgzrLJAEPEKC4eKCT2UQSCAcBiks4qLNMEvAAAYqLBzqZTSSBcBCguISDOsskAQ8QoLh4oJPZRBIIBwGKSzios0wS8AABiosHOplNJIFwEKC4hIM6yyQBDxCguHigk9lEEggHAYpLOKizTBLwAAGKiwc6mU0kgXAQoLiEgzrLJAEPEKC4eKCT2UQSCAcBiks4qLNMEvAAgaQJvY3dunVL6E1k+8JEYPz48WEq2R3FJmhxgbDwAXDHg+jGWvL5CtxrnBYF5sNYEiCBJyRAcXlCcLyNBEggMIGg4jJ06FBJnz69JEqUSGbMmOGT26pVq6RcuXI6rkKFCrJjxw6feF6QAAl4l0BQcenXr59MmDBBE/rrX/8q27Zts2jVrFlTvv/+e329YcMGKVWqlBXHExIgAW8TCCouwJM6dWopUaKEJtWgQQM5f/68RS1btmySK1cuSZrU1zf8+PFjefjwoZWOJyRAAt4iEC1xAZLmzZvLJ598ooWlVatW8uDBA00qceLEkjx5covalStXpHv37tKnTx8pVqyYYLSDtIZhyIoVK6Rly5YyYsQI6d+/v0CY6tevL4cOHZKZM2fqKVbu3Lll7ty5Vn6HDx+WJk2a6LTIb+XKlVbcd999p6dsu3btssJ4QgIkED8IRFtcUN0PPvhAMHJZu3at9O3bN9IWDBkyRJYvXy6jRo2Sn376SftpNm3aJI8ePZIzZ87I/PnzZfDgwXoktHDhQtm4caNUqlRJ9u/fL8OGDZOsWbNKjx49dN7Xr1+X2rVry+effy579+6VvHnzSp06deTYsWM+ZcMfRCMBEohfBGIkLkmSJNEjDEyDIB5z5syJ0Br4XTCygaVJk0YfIRyYNnXo0EFfQzxat24tFStWFPhtsmfPLp9++qlUq1ZNsHcA067bt2/L1KlT9X3r16+XRYsWSaZMmfT9a9as0UeMpq5duybFixfX1/xFAiQQfwj4OkqiUa/MmTNrJ26ZMmWkTZs2UqRIEZ+7IBoQCYxyTp8+rePu3LnjkwZTKdMgGHZ/TcaMGXXU1atXZcuWLXq0AvGBoTz8FCpUSF/jF0ctFgqekEC8IhBjcUHtS5curUcVHTt2lMaNG8v9+/etRu3evVuPSBYsWCC1atWSWbNmWXGRnWA0FJVhVILpVL169aJKwnASIIF4SuDPIUSACmLVx3/l55133pH27dvLqVOnJG3atNbdmBLVrVtX+0qwYhTMAqXBCAVTIDh8Tbt48aIMGDDAvOSRBEggnhKIlrhgeoNVG3/D/hdzidqMw4d/3bp1smfPHhk+fLgOPn78uBw5ckTu3bunr+/evWsml1u3bvksbeMahjSYAsHgxF2yZIlgNNSsWTNp166dDofwlCxZUvbt26ev+YsESCAeEVBLxAGtV69ehqqu/lEjFUONYHzSHzx40FACY4WNHTtWp1WrPsbkyZMNtbqkr7/66iujS5cu+lw5hA21LG0oh62RLl06HfZ///d/htrhayiHsL5u2rSpce7cOWP06NH6GnVA2nnz5lllTZs2Tcep1SsrzH7StWtX+yXPSSBOCfD5CowzEaJjq3UXLlyQLFmyWNlg9IGNd3C2Inv4ZFKkSGHFx/QEoxiMnvLkySPJkiXzuf3mzZs+0zJ7JL+1aqfB87gmwOcrMNEncuj6Z2kXFsSZS9A4h8DERliQR8qUKaVgwYI4jWB2f0+ESAaQAAmEjUC0fC5hqx0LJgEScC0Biotru44VJ4H4TYDiEr/7h7UjAdcSiBOHbnxuPZxuNBJwggD/hWpgqgleXAI3n7EkQAJOEeC0yCmyzJcEPE6A4uLxB4DNJwGnCFBcnCLLfEnA4wQoLh5/ANh8EnCKAMXFKbLMlwQ8ToDi4vEHgM0nAacIUFycIst8ScDjBCguHn8A2HwScIoAxcUpssyXBDxOgOLi8QeAzScBpwhQXJwiy3xJwOMEKC4efwDYfBJwigDFxSmyzJcEPE6A4uLxB4DNJwGnCFBcnCLLfEnA4wQoLh5/ANh8EnCKAMXFKbLMlwQ8TiBOXi0Snxny31zG595xd934by4D91+CFhe+tCpw5zM2dgT4fAXmx2lRYD6MJQESeEIC8VZc7ty5I1u2bNGvgzXbhpfcb9682bzkkQRIIB4TCCouAwcOlPTp0+vXsuKVqtWrV9c/5cqV02FVqlRxpHkzZsyQl19+WXbt2iUPHz4U9aJ6/T5q1IdGAiQQ/wkE9bkMGjRI8LL3kSNHChxY9erVs1q1f/9+ad++vXUdlyetWrWSHDlySNGiRSVp0qQybNgw2bBhQ1wWwbxIgAQcJBB05IKyzRfN46XydsuXL59MmTLFHvRE5w8ePPCZ/iCTzJkzS5MmTbSwmJnihfQ0EiABdxCIlrhE1ZRGjRrJCy+8oIVhxYoV0rJlSxkxYoT0799fsmXLJvXr15dDhw7JzJkzBdOo3Llzy9y5c63sfvvtN+nQoYP07NlT8uTJIxMmTNBxV65ckcmTJ+t7Nm7caKX3P/nuu+/0lA1TJxoJkED8IhAjcVm8eLFMmjRJxo0bJ2+88Ybs3LlTt+bRo0dy5swZmT9/vgwePFhKlCghCxcuFAhDpUqVBNMnTGuyZs0qPXr0sAi0bdtWkidPrkUF0y4s7d29e1euXr0qp06dkq1bt1ppA534j6gCpWUcCZBAaAjESFySJEki5g/8IKbhHCMQGMSjdevWUrFiRalZs6Zkz55dPv30U6lWrZoWj/Pnz8vt27d1WvhvatSooc/Tpk2rj4cPH5b8+fNL3bp19XWgX82bN5dr165J8eLFAyVjHAmQQBgI/KkQ0Si8QYMG1oe+S5cuUrt27Qh3JU78p15lypTJx2eSMWNGnR4jk9SpU8vQoUP16AfCdPLkSR2HkQssuqOR6KbTmfIXCZBAyAjESFz8a7VkyRIddO/ePUmRIoV/tB7lRAi0BcAXg9WoH3/8Uc6dO6ePtmiekgAJuJjAn8OMJ2gEBGX16tV62hPZ7Y8fP44sWIfBR9OuXTvp06ePFChQQAKljTITRpAACcRbAtESlxMnTugGYBXHbtu3b9f7XCpXriwYvcDMaQ3Ob926JfCxmIZrGNLcuHFDny9fvlz27t2r99Eg4ODBg9o5fOnSJR1/+fJlfcQvnGPPjWlr1qyRkiVLyr59+8wgHkmABOILASOIqWVlI126dIaqr/4pVKiQoUYaPmFqW76hfDA6PleuXIZaljamTp1qpVG7a40dO3YYpUqV0mmaNm1qqGmQoZau9bVaXTKWLl1qqNUk/aOmS0b58uV1HI5KxIy+ffvqa9Tjs88+07WeNm2aDlu7dm2krejatWuk4QwkgbggwOcrMMVEiA6n0GEEo8RLV+H+/fvaAWx3CgerG0Yy5kqTf1p+a9WfCK/jkgCfr8A0Y+XQDZx19GJNYUFq7HmJqUUlLDHNh+lJgATilkC0fC5xWyRzIwES8AIBiosXepltJIEwEKC4hAE6iyQBLxAIu0PXachwutFIwAkC/B+6gakmeHEJ3HzGkgAJOEWA0yKnyDJfEvA4AYqLxx8ANp8EnCJAcXGKLPMlAY8ToLh4/AFg80nAKQIUF6fIMl8S8DgBiovHHwA2nwScIkBxcYos8yUBjxOguHj8AWDzScApAhQXp8gyXxLwOAGKi8cfADafBJwiQHFxiizzJQGPE6C4ePwBYPNJwCkCFBenyDJfEvA4AYqLxx8ANp8EnCJAcXGKLPMlAY8ToLh4/AFg80nAKQIUF6fIMl8S8DiBsL9axA38+a8y3dBLrGN0CYTq33NSXIL0CF98FQQQo11HIFTPNKdFrns0WGEScAcBios7+om1JAHXEaC4uK7LWGEScAcBios7+om1JAHXEaC4uK7LWGEScAcBios7+om1JAHXEaC4uK7LWGEScAcBios7+om1JAHXEaC4uK7LWGEScAcBios7+om1JAHXEaC4uK7LWGEScAcBios7+om1JAHXEaC4uK7LWGEScAcBios7+om1JAHXEaC4uK7LWGEScAcBios7+om1JAHXEaC4uK7LWGEScAcBios7+om1JAHXEaC4uK7LWGEScAcBios7+om1JAHXEaC4uK7LWGEScAcBios7+om1JAHXEaC4uK7LWGEScAeBoOIydOhQyZ07tyRKlEhatmwZZaveeOMNnSZ9+vQyaNCgKNMxggRIwBsEgopLv3795MMPP9Q05s+fL4cOHYpA5uTJkzJ37lwd/u6778rAgQMjpGEACZCAtwgEFRfgyJIli2TNmlWTGTNmTARCkyZNkldeeUWHP/300xHiAwU8evQo0uiowpH4/v37kd6DwMePH0cZxwgS8DKBzp07h7T50RIX1Ojtt9/WAoP3zF64cMGq5O3bt2XmzJkSWcVv3bol7733nhQrVkxPrUaOHGndt2HDBnnrrbekS5cuUrJkSVm1apWOO3XqlHTo0EG6d+8uFSpUEEzLTBsyZIjOr2bNmlK5cmU5e/asGSWXL1/W07ZKlSpJ4cKF9TnSm/kePnxYmjRpItmyZdP1WblypXVv7969pWDBgvLgwQMrjCckkJAI4PM5efLkkDYp2uKSKlUq6dWrl66cvZLffvutvP7665I5c+YIFW/VqpXUqFFDfv31V2nfvr306dNHFixYoNNh+gTBQl44Xr9+XYdDgPLmzStffPGFTJgwwRKQpUuXSv/+/fXP+vXrtcBNnTrVKhMjqrt378rGjRvl888/F0zh9u/fL5kyZdJ5165dW4fv3btX51+nTh05duyYdT9OOOrxwcGLBEIgHMICdNEWFyR+5513cJBhw4YJRiyGYQjEAKMPf9uyZYssW7ZMrl27JrNnz5ZkyZLpJIsXL9YfYvhpICDIB87gfPny6fjTp0/LnDlz9Ae/VKlSUrduXR2eJ08ePRrBtAtTJojZnj17dBx+YWr27LPPSpIkSeTVV1/V4dmzZ5fSpUsLRChp0qQCUVq0aJEWHCRYs2aNToc2wJeUIkUKfc1fJJBQCIRLWMAvRuKCDzamOTdu3NACsHr1aj2dwIfa33755RdJly6d5MyZU/AhL1u2rCxfvlxPdxInTizvv/++Hl1gCrN161aBkMA6duwoBw4ckPz588vo0aMtcSlRooR8/fXXMn36dD1SOnLkiNy5c8cqFmWgPrDkyZPrslEmDEKH0RDS4KdNmza6LlWrVtXx+IXVMBoJJCQC/sKC65CaGn0ENTWVMdTysk73+++/G6qCRoECBYx69eoZyqehw5Vw6PB//etf+hpHpLt3716U+aspkU6DdLNmzbLSbdq0yVAOZB2nfC86XE2bDCUwxuDBgw01fTFq1aplNGrUyLpn3rx5Or2aShlqRGQo34uhHL86Xk2BDDU9s9LG5KRr164xSc60JBAvCHTq1MmnHvbrUD3T0Rq5PHz4UPADK1KkiDRo0EAwcoBPAz4VmL+/Ag5SmLlEjXOkgaMWqz0TJ04U1WA9HVFCJXC+wuBnqVixosAB27hxYxk3bpxcuXJFL28fPXpUPvroIz3K8F9NqlKliiix09MfOHXhezGnYoUKFdJTIPsy+sWLF2XAgAG6TP4igYREILIRi91PGqq2Rktc4AfBh920nj176lM4WM3pxIkTJ3QYfCkw+EowLWrXrp1MmTJFr9q0bdtW8MGHXwRTHogMRAhpsFEPBp8IhCtt2rSCcrAEjnwgBpiO/fDDD7JixQotFqgXBA6GPHLkyCEQEkyXICSmIGIaBIMTd8mSJdqp3KxZM30PwocPHy7Vq1cPuMSNdDQScAMBfyHxvw5VGxJh7BSoMCzTjho1SifBis+0adMEPhPsa8FyburUqfVoQ01X5Pz581oIevToIZ988olguRmjHIgCrG/fvnqEghEMVnHgE4HfA6tJGEW89NJL0rBhQzl48KBAiHbt2iUtWrTQPhaMROrXr6/zgujAofvxxx9Lt27d9OjmzTfflG+++UaXY/6CnwZ1xPIzVpNMUYRYffnllzpfpEVZEDUIY4YMGczbrSPKoJFAQiGA7SShsKDiEttKQEiw5IsPeJo0aazsMKrAyAXLx/ZlbHO0cenSJX2PdYM6QXpoobmqgxEKlshv3rypRQirWFgVwv4arFJhlQhiBfGAoSyMdrDyZE6ZEI4ysccFedFIgATihkDSuMkm6lwwyoFPxd8gAvjByMduCINBjPwNq0B2M8UAoyQsS2PVyp4fVokwTTItZcqUehpmXptHsy7mNY8kQAKxJ+D4yCX2VQyew88//6x380JIypUrp0cux48fF0zpMF2ikQAJhJ5AghAXYMOKEnw8cPzCH/Tcc8+FniZLJAESsAgkGHGxWsQTEiCBeEEgWkvR8aKmrAQJkICrCFBcXNVdrCwJuIcAxcU9fcWakoCrCFBcXNVdrCwJuIcAxcU9fcWakoCrCFBcXNVdrCwJuIcAxcU9fcWakoCrCFBcXNVdrCwJuIcAxcU9fcWakoCrCFBcXNVdrCwJuIcAxcU9fcWakoCrCFBcXNVdrCwJuIcAxcU9fcWakoCrCFBcXNVdrCwJuIcAxcU9fcWakoCrCFBcXNVdrCwJuIcAxcU9fcWakoCrCAT9B91nz54VvGwe7xJKiIZ/Ho53VeOdRzQSIIG4IxD031ziJe1FixbV//g67oqNPznhDQHqFbX6n3nHn1qxJiTgfgJBp0UYseA/6idUQ9sS6qgsofYZ2+UOAkHFxR3NYC1JgATiGwGKS3zrEdaHBBIIgTgRF7wOFS+7xgvfa9Sood/fvGrVqmgjwruYN2/eHO30USVct26dfh+1Gb9z506+XN6EwSMJhJhAnIhL9+7d5bPPPpOnnnpKGjduLBcuXJBWrVrpVabotAerUWfOnIlO0oBprl+/LljdguH1rhA6vEeaRgIkEHoCsRYXvAx+3rx5MmDAABkzZoz06NFD/v3vf0vt2rVl4sSJukWPHj2SGzdu+LTu9u3bcu/ePZ+wy5cva+cqXl5vGl4+jzLwAvqjR48KBMQ0vLIVL503rU6dOjJp0iSdFnnB8EJ68+X2ZjoeSYAEnCcQa3HBy+HTpk0rGzdulEuXLlk1Hjt2rEybNk1f7969W/Lly6dftWomaNGihSCNaRMmTNCvYC1btqzg58CBAzpq9uzZUrVqValUqZKUKVNG8ufPL1988YUeIZUqVUry5MkjX375pU47Z84c/SrXq1evSpMmTXQY7tm2bZtZDI8kQAIhIhBrcUmSJIlAGJYsWSJ4ETxGD8OHD9fTE1zbDaOPqOyPP/6Q1atXy/bt2yVTpkzSs2dPK+nhw4elbdu2cuzYMWnZsqUeJZUoUUKPZPr27avFxkyMkQ7uN30+Bw8elPLly5vRPJIACYSIQKzFBfVs2LCh9nGMGjVKcubMKePHj5fq1avrY3TbAdF48cUX9QgHQgIHL0YgpnXq1EnSpUunp1sI69y5s6RPn14qV66sRQfTHxoJkED8IRBrccGIY9OmTZI9e3Z56623ZPr06XpKAzEYOHCgmL4P/ybDD2M3CItpRYoU0afmvc8884xghARLmTKlPubKlUsfMS2jkQAJxD8CsRYXbJ1/7bXX9BTFbF6KFCn093Vwfe7cOUmUKJGOgmPWNExx7Ga/3rFjh44yv+9DAbGT4jkJuINArMWlYsWK8vTTT2uBWbRokezbt0+w36R37956ioNRCEY1MDhcsUyNadPFixd9CM2YMUNPbyAsGP1gSTtVqlQ+aWJykSZNGp1869aterUpJvcyLQmQQOwJxFpcMEqBmODLjW+//bZe1WnWrJl2qi5btkyPWrJmzSr9+/eXESNGyPPPP6+dv/CV2A3O39KlS0utWrUE06ChQ4fqaHPUY6b1v44qPHfu3FK4cGH5y1/+IitWrDCT8UgCJBAiAkG/FY3ds4MHD45WdbCfBD6YLFmySGRTmbt37+pNbRjpRGaYNuEnc+bMkUXHOAyrU3D0ZsiQwZqaRZbJxx9/HCPnc2R5MIwESMCXQND/5+KbPPBV0qRJ9WpRVKngjDUdspGlwTQoNlMh/zwxysmYMaN/MK9JgARCQCDW06IQ1JFFkAAJuJAAxcWFncYqk4AbCAQVF/wbSPy3toRqaBvaSCMBEohbAkEduvwfunELnLmRgFcIBBUXr4BgO0mABOKWQNBpUdwWx9xIgAS8QoDi4pWeZjtJIMQEKC4hBs7iSMArBCguXulptpMEQkyA4hJi4CyOBLxCgOLilZ5mO0kgxAQoLiEGzuJIwCsEKC5e6Wm2kwRCTIDiEmLgLI4EvEKA4uKVnmY7SSDEBCguIQbO4kjAKwQoLl7pabaTBEJMgOISYuAsjgS8QoDi4pWeZjtJIMQEKC4hBs7iSMArBCguXulptpMEQkyA4hJi4CyOBLxCgOLilZ5mO0kgxAQoLiEGzuJIwCsEKC5e6Wm2kwRCTIDiEmLgLI4EvEKA4uKVnmY7SSDEBCguIQbO4kjAKwQoLl7pabaTBEJMgOISYuAsjgS8QoDi4pWeZjtJIMQEKC4hBs7iSMArBCguXulptpMEQkyA4hJi4CyOBLxCgOLilZ5mO0kgxAQoLiEGzuJIwCsEKC5e6Wm2kwRCTIDiEmLgLI4EvEKA4uKVnmY7SSDEBCguIQbO4kjAKwQoLl7pabaTBEJMgOISYuAsjgS8QoDi4pWeZjtJIMQE/h88uxsfNqLWsQAAAABJRU5ErkJggg==;" vertex="1" parent="1">
                    <mxGeometry x="-580" y="77" width="279" height="264" as="geometry"/>
                </mxCell>
                <mxCell id="12" style="edgeStyle=none;html=1;" edge="1" parent="1" source="9" target="11">
                    <mxGeometry relative="1" as="geometry"/>
                </mxCell>
                <mxCell id="9" value="&lt;h2&gt;Validate, format &amp;amp; forward request&lt;/h2&gt;&lt;div&gt;&lt;br&gt;&lt;/div&gt;&lt;div&gt;&lt;div&gt;event: {&lt;/div&gt;&lt;/div&gt;&lt;div&gt;&lt;span style=&quot;white-space: pre&quot;&gt;&#9;&lt;/span&gt;body: {&lt;/div&gt;&lt;div&gt;&lt;span style=&quot;white-space: pre&quot;&gt;&#9;&lt;/span&gt;&lt;span style=&quot;white-space: pre&quot;&gt;&#9;&lt;/span&gt;name: &quot;John Doe&quot;,&lt;br&gt;&lt;/div&gt;&lt;div&gt;&lt;span style=&quot;white-space: pre&quot;&gt;&#9;&lt;/span&gt;&lt;span style=&quot;white-space: pre&quot;&gt;&#9;&lt;/span&gt;email: &quot;john.doe@email.com&quot;,&lt;br&gt;&lt;/div&gt;&lt;div&gt;&lt;span style=&quot;white-space: pre&quot;&gt;&#9;&lt;/span&gt;&lt;span style=&quot;white-space: pre&quot;&gt;&#9;&lt;/span&gt;message: &quot;message text&quot;&lt;br&gt;&lt;/div&gt;&lt;div&gt;&lt;span style=&quot;white-space: pre&quot;&gt;&#9;&lt;/span&gt;}&lt;br&gt;&lt;/div&gt;&lt;div&gt;&lt;br&gt;&lt;/div&gt;&lt;div&gt;&lt;div&gt;}&lt;/div&gt;&lt;/div&gt;" style="text;html=1;align=left;verticalAlign=middle;resizable=0;points=[];autosize=1;strokeColor=none;fillColor=none;" vertex="1" parent="1">
                    <mxGeometry x="124" y="350" width="310" height="180" as="geometry"/>
                </mxCell>
                <mxCell id="15" style="edgeStyle=none;html=1;" edge="1" parent="1" source="11" target="14">
                    <mxGeometry relative="1" as="geometry"/>
                </mxCell>
                <mxCell id="24" style="edgeStyle=none;html=1;" edge="1" parent="1" source="14" target="20">
                    <mxGeometry relative="1" as="geometry"/>
                </mxCell>
                <mxCell id="14" value="&lt;h2 style=&quot;text-align: left&quot;&gt;&lt;span&gt;Trigger `sendEmail` Request&lt;/span&gt;&lt;/h2&gt;&lt;div style=&quot;text-align: left&quot;&gt;&lt;span&gt;ses.sendEmail(params).promize()&lt;/span&gt;&lt;/div&gt;" style="text;html=1;align=center;verticalAlign=middle;resizable=0;points=[];autosize=1;strokeColor=none;fillColor=none;" vertex="1" parent="1">
                    <mxGeometry x="589" y="570" width="260" height="60" as="geometry"/>
                </mxCell>
                <mxCell id="21" value="" style="group" vertex="1" connectable="0" parent="1">
                    <mxGeometry x="664" y="370" width="110" height="109" as="geometry"/>
                </mxCell>
                <mxCell id="11" value="" style="sketch=0;points=[[0,0,0],[0.25,0,0],[0.5,0,0],[0.75,0,0],[1,0,0],[0,1,0],[0.25,1,0],[0.5,1,0],[0.75,1,0],[1,1,0],[0,0.25,0],[0,0.5,0],[0,0.75,0],[1,0.25,0],[1,0.5,0],[1,0.75,0]];outlineConnect=0;fontColor=#232F3E;gradientColor=#F78E04;gradientDirection=north;fillColor=#D05C17;strokeColor=#ffffff;dashed=0;verticalLabelPosition=bottom;verticalAlign=top;align=center;html=1;fontSize=12;fontStyle=0;aspect=fixed;shape=mxgraph.aws4.resourceIcon;resIcon=mxgraph.aws4.lambda;labelBackgroundColor=none;" vertex="1" parent="21">
                    <mxGeometry x="16" y="31" width="78" height="78" as="geometry"/>
                </mxCell>
                <mxCell id="13" value="Lambda Function" style="text;html=1;align=center;verticalAlign=middle;resizable=0;points=[];autosize=1;strokeColor=none;fillColor=none;" vertex="1" parent="21">
                    <mxGeometry width="110" height="20" as="geometry"/>
                </mxCell>
                <mxCell id="22" value="" style="group" vertex="1" connectable="0" parent="1">
                    <mxGeometry x="234" y="140" width="90" height="108" as="geometry"/>
                </mxCell>
                <mxCell id="6" value="API Gateway" style="text;html=1;align=center;verticalAlign=middle;resizable=0;points=[];autosize=1;strokeColor=none;fillColor=none;" parent="22" vertex="1">
                    <mxGeometry width="90" height="20" as="geometry"/>
                </mxCell>
                <mxCell id="18" value="" style="sketch=0;points=[[0,0,0],[0.25,0,0],[0.5,0,0],[0.75,0,0],[1,0,0],[0,1,0],[0.25,1,0],[0.5,1,0],[0.75,1,0],[1,1,0],[0,0.25,0],[0,0.5,0],[0,0.75,0],[1,0.25,0],[1,0.5,0],[1,0.75,0]];outlineConnect=0;fontColor=#232F3E;gradientColor=#945DF2;gradientDirection=north;fillColor=#5A30B5;strokeColor=#ffffff;dashed=0;verticalLabelPosition=bottom;verticalAlign=top;align=center;html=1;fontSize=12;fontStyle=0;aspect=fixed;shape=mxgraph.aws4.resourceIcon;resIcon=mxgraph.aws4.api_gateway;labelBackgroundColor=none;" vertex="1" parent="22">
                    <mxGeometry x="6" y="30" width="78" height="78" as="geometry"/>
                </mxCell>
                <mxCell id="26" value="" style="group" vertex="1" connectable="0" parent="1">
                    <mxGeometry x="654" y="750" width="130" height="108" as="geometry"/>
                </mxCell>
                <mxCell id="25" value="" style="sketch=0;points=[[0,0,0],[0.25,0,0],[0.5,0,0],[0.75,0,0],[1,0,0],[0,1,0],[0.25,1,0],[0.5,1,0],[0.75,1,0],[1,1,0],[0,0.25,0],[0,0.5,0],[0,0.75,0],[1,0.25,0],[1,0.5,0],[1,0.75,0]];outlineConnect=0;fontColor=#232F3E;gradientColor=#4D72F3;gradientDirection=north;fillColor=#3334B9;strokeColor=#ffffff;dashed=0;verticalLabelPosition=bottom;verticalAlign=top;align=center;html=1;fontSize=12;fontStyle=0;aspect=fixed;shape=mxgraph.aws4.resourceIcon;resIcon=mxgraph.aws4.simple_email_service;labelBackgroundColor=none;" vertex="1" parent="26">
                    <mxGeometry x="26" y="30" width="78" height="78" as="geometry"/>
                </mxCell>
                <mxCell id="20" value="Simple Email Service" style="text;html=1;align=center;verticalAlign=middle;resizable=0;points=[];autosize=1;strokeColor=none;fillColor=none;" vertex="1" parent="26">
                    <mxGeometry width="130" height="20" as="geometry"/>
                </mxCell>
            </root>
        </mxGraphModel>
    </diagram>
</mxfile>